<svg width="14" height="14" viewBox="0 0 14 14" fill="none" xmlns="http://www.w3.org/2000/svg">
<g clip-path="url(#clip0_1_278)">
<path d="M2.625 7H1.75C1.26675 7 0.875 7.39175 0.875 7.875V11.375C0.875 11.8582 1.26675 12.25 1.75 12.25H2.625C3.10825 12.25 3.5 11.8582 3.5 11.375V7.875C3.5 7.39175 3.10825 7 2.625 7Z" fill="#858699" style="fill:#858699;fill:color(display-p3 0.5216 0.5255 0.6000);fill-opacity:1;"/>
<path d="M7 4.375H6.125C5.64175 4.375 5.25 4.76675 5.25 5.25V11.375C5.25 11.8582 5.64175 12.25 6.125 12.25H7C7.48325 12.25 7.875 11.8582 7.875 11.375V5.25C7.875 4.76675 7.48325 4.375 7 4.375Z" fill="#858699" style="fill:#858699;fill:color(display-p3 0.5216 0.5255 0.6000);fill-opacity:1;"/>
<path d="M11.375 1.75H10.5C10.0168 1.75 9.625 2.14175 9.625 2.625V11.375C9.625 11.8582 10.0168 12.25 10.5 12.25H11.375C11.8582 12.25 12.25 11.8582 12.25 11.375V2.625C12.25 2.14175 11.8582 1.75 11.375 1.75Z" fill="#858699" fill-opacity="0.4" style="fill:#858699;fill:color(display-p3 0.5216 0.5255 0.6000);fill-opacity:0.4;"/>
</g>
<defs>
<clipPath id="clip0_1_278">
<rect width="14" height="14" fill="white" style="fill:white;fill-opacity:1;"/>
</clipPath>
</defs>
</svg>
