<svg width="16" height="18" viewBox="0 0 16 18" fill="none" xmlns="http://www.w3.org/2000/svg">
<path d="M8 5C7.46957 5 6.96086 5.21071 6.58579 5.58579C6.21071 5.96086 6 6.46957 6 7V7.5C6 8.03043 6.21071 8.53914 6.58579 8.91421C6.96086 9.28929 7.46957 9.5 8 9.5C8.53043 9.5 9.03914 9.28929 9.41421 8.91421C9.78929 8.53914 10 8.03043 10 7.5V7C10 6.46957 9.78929 5.96086 9.41421 5.58579C9.03914 5.21071 8.53043 5 8 5Z" fill="#4C4F6B" style="fill:#4C4F6B;fill:color(display-p3 0.2980 0.3098 0.4196);fill-opacity:1;"/>
<path fill-rule="evenodd" clip-rule="evenodd" d="M8 16C9.85652 16 11.637 15.2625 12.9497 13.9497C14.2625 12.637 15 10.8565 15 9C15 7.14348 14.2625 5.36301 12.9497 4.05025C11.637 2.7375 9.85652 2 8 2C6.14348 2 4.36301 2.7375 3.05025 4.05025C1.7375 5.36301 1 7.14348 1 9C1 10.8565 1.7375 12.637 3.05025 13.9497C4.36301 15.2625 6.14348 16 8 16ZM5.121 11.879L4.111 12.889C3.34179 12.1198 2.81794 11.1398 2.6057 10.0729C2.39346 9.00601 2.50236 7.90013 2.91864 6.89512C3.33491 5.89012 4.03986 5.03112 4.94434 4.42676C5.84881 3.8224 6.91219 3.49983 8 3.49983C9.08781 3.49983 10.1512 3.8224 11.0557 4.42676C11.9601 5.03112 12.6651 5.89012 13.0814 6.89512C13.4976 7.90013 13.6065 9.00601 13.3943 10.0729C13.1821 11.1398 12.6582 12.1198 11.889 12.889L10.879 11.879C10.6004 11.6003 10.2696 11.3792 9.90545 11.2284C9.54135 11.0776 9.1511 11 8.757 11H7.243C6.8489 11 6.45865 11.0776 6.09455 11.2284C5.73045 11.3792 5.39963 11.6003 5.121 11.879Z" fill="#4C4F6B" style="fill:#4C4F6B;fill:color(display-p3 0.2980 0.3098 0.4196);fill-opacity:1;"/>
</svg>
